<?xml version="1.0" encoding="iso-8859-1"?>
<!-- Generator: Adobe Illustrator 19.0.0, SVG Export Plug-In . SVG Version: 6.00 Build 0)  -->
<svg version="1.1" id="Capa_1" xmlns="http://www.w3.org/2000/svg" xmlns:xlink="http://www.w3.org/1999/xlink" x="0px" y="0px"
	 viewBox="0 0 459.84 459.84" style="enable-background:new 0 0 459.84 459.84;" xml:space="preserve" fill="#888">
<g>
	<g>
		<g>
			<path d="M317.92,62.4l44.8-44.8L345.12,0l-49.173,49.173c-20.053-9.92-42.24-16-66.027-16s-45.973,6.08-66.027,16L114.72,0
				l-17.6,17.6l44.8,44.8c-37.013,27.093-61.333,70.613-61.333,120.107v21.333h298.667v-21.333
				C379.253,133.013,354.933,89.493,317.92,62.4z M165.92,161.173c-11.84,0-21.333-9.6-21.333-21.333s9.493-21.333,21.333-21.333
				s21.333,9.6,21.333,21.333S177.76,161.173,165.92,161.173z M293.92,161.173c-11.84,0-21.333-9.6-21.333-21.333
				s9.493-21.333,21.333-21.333s21.333,9.6,21.333,21.333S305.76,161.173,293.92,161.173z"/>
			<path d="M80.587,310.507c0,82.453,66.88,149.333,149.333,149.333s149.333-66.88,149.333-149.333v-85.333H80.587V310.507z"/>
		</g>
	</g>
</g>
<g>
</g>
<g>
</g>
<g>
</g>
<g>
</g>
<g>
</g>
<g>
</g>
<g>
</g>
<g>
</g>
<g>
</g>
<g>
</g>
<g>
</g>
<g>
</g>
<g>
</g>
<g>
</g>
<g>
</g>
</svg>
